<svg xmlns="http://www.w3.org/2000/svg" version="1.1" width="100" height="100" viewBox="0 0 100 100"><rect x="0" y="0" width="100" height="100" fill="#ffffff"/><g transform="scale(2.439)"><g transform="translate(0,0)"><path fill-rule="evenodd" d="M10 0L10 1L8 1L8 3L9 3L9 4L8 4L8 8L6 8L6 9L7 9L7 10L6 10L6 11L7 11L7 12L5 12L5 11L4 11L4 12L5 12L5 14L6 14L6 15L7 15L7 16L6 16L6 17L7 17L7 18L6 18L6 19L5 19L5 18L4 18L4 17L5 17L5 16L4 16L4 13L3 13L3 11L2 11L2 13L1 13L1 15L3 15L3 16L0 16L0 17L1 17L1 18L2 18L2 17L3 17L3 19L2 19L2 20L1 20L1 19L0 19L0 21L2 21L2 22L1 22L1 24L0 24L0 25L1 25L1 24L3 24L3 26L4 26L4 27L3 27L3 28L2 28L2 27L1 27L1 26L0 26L0 27L1 27L1 29L2 29L2 31L3 31L3 32L2 32L2 33L5 33L5 32L4 32L4 30L5 30L5 31L7 31L7 30L9 30L9 29L7 29L7 28L6 28L6 27L7 27L7 26L8 26L8 27L9 27L9 25L7 25L7 24L5 24L5 23L7 23L7 22L9 22L9 23L8 23L8 24L10 24L10 25L12 25L12 26L10 26L10 27L11 27L11 28L10 28L10 29L12 29L12 28L13 28L13 31L14 31L14 33L13 33L13 32L12 32L12 31L11 31L11 30L10 30L10 31L11 31L11 32L9 32L9 31L8 31L8 32L6 32L6 33L8 33L8 35L9 35L9 33L11 33L11 34L10 34L10 37L11 37L11 38L10 38L10 39L8 39L8 41L9 41L9 40L10 40L10 39L11 39L11 38L12 38L12 40L11 40L11 41L12 41L12 40L13 40L13 41L14 41L14 40L15 40L15 41L16 41L16 40L19 40L19 39L18 39L18 38L17 38L17 39L15 39L15 38L16 38L16 37L17 37L17 35L19 35L19 38L20 38L20 40L21 40L21 41L24 41L24 40L25 40L25 41L26 41L26 38L25 38L25 36L26 36L26 35L27 35L27 38L28 38L28 39L29 39L29 41L30 41L30 39L29 39L29 38L30 38L30 37L29 37L29 35L30 35L30 34L31 34L31 33L32 33L32 37L31 37L31 40L32 40L32 41L37 41L37 40L38 40L38 39L39 39L39 41L40 41L40 39L41 39L41 38L37 38L37 37L38 37L38 36L39 36L39 35L40 35L40 34L41 34L41 33L40 33L40 32L41 32L41 30L40 30L40 29L41 29L41 28L40 28L40 29L39 29L39 33L40 33L40 34L39 34L39 35L38 35L38 31L37 31L37 30L36 30L36 28L38 28L38 27L41 27L41 24L40 24L40 25L39 25L39 23L40 23L40 22L39 22L39 23L38 23L38 25L39 25L39 26L35 26L35 25L37 25L37 24L36 24L36 22L35 22L35 21L37 21L37 20L38 20L38 21L40 21L40 20L41 20L41 17L39 17L39 19L40 19L40 20L38 20L38 19L37 19L37 18L38 18L38 17L37 17L37 14L36 14L36 16L35 16L35 17L34 17L34 16L32 16L32 17L33 17L33 18L32 18L32 22L30 22L30 20L31 20L31 19L30 19L30 18L29 18L29 17L30 17L30 15L31 15L31 13L30 13L30 12L32 12L32 14L34 14L34 15L35 15L35 13L37 13L37 12L36 12L36 10L35 10L35 11L34 11L34 12L33 12L33 11L32 11L32 10L30 10L30 9L29 9L29 8L30 8L30 7L31 7L31 9L33 9L33 6L32 6L32 5L31 5L31 4L32 4L32 2L29 2L29 1L32 1L32 0L29 0L29 1L27 1L27 0L26 0L26 2L28 2L28 4L27 4L27 3L24 3L24 4L23 4L23 2L24 2L24 0L21 0L21 1L22 1L22 4L21 4L21 2L20 2L20 3L19 3L19 2L18 2L18 1L19 1L19 0L18 0L18 1L15 1L15 0L14 0L14 1L15 1L15 2L14 2L14 3L12 3L12 2L13 2L13 0L12 0L12 1L11 1L11 0ZM10 2L10 5L9 5L9 7L10 7L10 6L11 6L11 7L12 7L12 8L14 8L14 6L13 6L13 4L11 4L11 2ZM15 2L15 3L14 3L14 5L15 5L15 8L17 8L17 7L18 7L18 6L17 6L17 5L16 5L16 4L17 4L17 2ZM15 3L15 4L16 4L16 3ZM19 4L19 5L20 5L20 6L19 6L19 8L18 8L18 9L17 9L17 13L19 13L19 14L18 14L18 16L17 16L17 14L15 14L15 12L14 12L14 11L16 11L16 10L14 10L14 9L12 9L12 11L13 11L13 12L12 12L12 16L11 16L11 14L10 14L10 13L11 13L11 12L10 12L10 11L11 11L11 9L10 9L10 8L8 8L8 9L9 9L9 10L8 10L8 12L7 12L7 13L6 13L6 14L8 14L8 18L7 18L7 19L6 19L6 20L7 20L7 21L4 21L4 22L2 22L2 23L3 23L3 24L4 24L4 22L7 22L7 21L9 21L9 18L10 18L10 19L11 19L11 20L10 20L10 21L12 21L12 20L13 20L13 22L14 22L14 25L15 25L15 27L13 27L13 26L12 26L12 27L13 27L13 28L14 28L14 29L15 29L15 30L14 30L14 31L16 31L16 32L15 32L15 33L14 33L14 34L15 34L15 35L14 35L14 36L13 36L13 37L14 37L14 36L15 36L15 37L16 37L16 36L15 36L15 35L17 35L17 34L19 34L19 32L20 32L20 33L22 33L22 34L21 34L21 35L23 35L23 36L22 36L22 37L21 37L21 36L20 36L20 37L21 37L21 39L23 39L23 38L22 38L22 37L23 37L23 36L25 36L25 35L24 35L24 34L23 34L23 32L29 32L29 31L28 31L28 30L27 30L27 29L29 29L29 30L30 30L30 31L32 31L32 32L34 32L34 30L35 30L35 31L36 31L36 32L37 32L37 31L36 31L36 30L35 30L35 26L34 26L34 25L33 25L33 24L34 24L34 23L35 23L35 22L34 22L34 21L33 21L33 22L32 22L32 25L33 25L33 27L34 27L34 30L33 30L33 29L32 29L32 30L31 30L31 28L32 28L32 26L31 26L31 23L29 23L29 22L27 22L27 21L25 21L25 20L27 20L27 19L28 19L28 20L29 20L29 18L28 18L28 17L29 17L29 14L30 14L30 13L27 13L27 12L26 12L26 13L25 13L25 14L24 14L24 15L23 15L23 17L22 17L22 16L20 16L20 18L19 18L19 21L20 21L20 18L21 18L21 19L22 19L22 20L21 20L21 21L22 21L22 22L20 22L20 24L21 24L21 23L22 23L22 26L24 26L24 21L25 21L25 23L27 23L27 24L26 24L26 25L27 25L27 26L26 26L26 27L28 27L28 28L27 28L27 29L26 29L26 28L25 28L25 27L22 27L22 28L21 28L21 29L20 29L20 28L19 28L19 27L20 27L20 25L19 25L19 24L18 24L18 20L17 20L17 18L18 18L18 17L19 17L19 15L21 15L21 14L20 14L20 12L18 12L18 11L19 11L19 10L20 10L20 11L21 11L21 10L22 10L22 11L24 11L24 12L23 12L23 13L22 13L22 14L23 14L23 13L24 13L24 12L25 12L25 11L29 11L29 12L30 12L30 10L28 10L28 9L26 9L26 6L25 6L25 11L24 11L24 8L23 8L23 7L24 7L24 5L26 5L26 4L24 4L24 5L23 5L23 4L22 4L22 5L20 5L20 4ZM28 4L28 5L29 5L29 7L28 7L28 6L27 6L27 8L29 8L29 7L30 7L30 6L31 6L31 7L32 7L32 6L31 6L31 5L29 5L29 4ZM11 5L11 6L12 6L12 7L13 7L13 6L12 6L12 5ZM16 6L16 7L17 7L17 6ZM20 6L20 8L19 8L19 9L18 9L18 10L19 10L19 9L21 9L21 8L22 8L22 7L23 7L23 6L22 6L22 7L21 7L21 6ZM0 8L0 10L5 10L5 9L4 9L4 8L3 8L3 9L2 9L2 8ZM34 8L34 9L37 9L37 8ZM38 8L38 9L40 9L40 10L41 10L41 9L40 9L40 8ZM9 10L9 11L10 11L10 10ZM37 10L37 11L38 11L38 13L39 13L39 10ZM8 13L8 14L9 14L9 16L10 16L10 18L11 18L11 16L10 16L10 14L9 14L9 13ZM13 14L13 16L12 16L12 19L13 19L13 18L14 18L14 20L15 20L15 18L17 18L17 17L14 17L14 16L16 16L16 15L15 15L15 14ZM26 14L26 15L24 15L24 17L23 17L23 18L22 18L22 17L21 17L21 18L22 18L22 19L23 19L23 20L24 20L24 19L27 19L27 17L26 17L26 16L28 16L28 15L27 15L27 14ZM39 14L39 16L41 16L41 14ZM3 16L3 17L4 17L4 16ZM25 17L25 18L26 18L26 17ZM36 17L36 18L37 18L37 17ZM23 18L23 19L24 19L24 18ZM33 18L33 20L34 20L34 18ZM3 19L3 20L2 20L2 21L3 21L3 20L4 20L4 19ZM14 21L14 22L15 22L15 21ZM16 22L16 23L17 23L17 22ZM22 22L22 23L23 23L23 22ZM33 22L33 23L34 23L34 22ZM10 23L10 24L11 24L11 23ZM15 24L15 25L16 25L16 24ZM17 24L17 27L15 27L15 29L16 29L16 31L17 31L17 32L16 32L16 33L15 33L15 34L17 34L17 33L18 33L18 32L19 32L19 30L20 30L20 31L21 31L21 32L23 32L23 30L24 30L24 29L23 29L23 28L22 28L22 30L20 30L20 29L18 29L18 26L19 26L19 25L18 25L18 24ZM28 24L28 25L29 25L29 24ZM5 25L5 26L7 26L7 25ZM29 26L29 28L31 28L31 26ZM4 27L4 28L3 28L3 30L4 30L4 29L6 29L6 30L7 30L7 29L6 29L6 28L5 28L5 27ZM16 28L16 29L17 29L17 28ZM25 29L25 31L26 31L26 29ZM0 30L0 31L1 31L1 30ZM17 30L17 31L18 31L18 30ZM32 30L32 31L33 31L33 30ZM0 32L0 33L1 33L1 32ZM30 32L30 33L31 33L31 32ZM26 33L26 34L27 34L27 35L29 35L29 34L28 34L28 33ZM33 33L33 36L36 36L36 33ZM11 34L11 35L12 35L12 34ZM34 34L34 35L35 35L35 34ZM11 36L11 37L12 37L12 36ZM40 36L40 37L41 37L41 36ZM8 37L8 38L9 38L9 37ZM28 37L28 38L29 38L29 37ZM33 37L33 38L32 38L32 39L33 39L33 40L34 40L34 39L33 39L33 38L34 38L34 37ZM13 38L13 39L14 39L14 38ZM24 38L24 39L25 39L25 38ZM35 38L35 40L37 40L37 39L36 39L36 38ZM0 0L0 7L7 7L7 0ZM1 1L1 6L6 6L6 1ZM2 2L2 5L5 5L5 2ZM34 0L34 7L41 7L41 0ZM35 1L35 6L40 6L40 1ZM36 2L36 5L39 5L39 2ZM0 34L0 41L7 41L7 34ZM1 35L1 40L6 40L6 35ZM2 36L2 39L5 39L5 36Z" fill="#000000"/></g></g></svg>