<svg xmlns="http://www.w3.org/2000/svg" version="1.1" width="100" height="100" viewBox="0 0 100 100"><rect x="0" y="0" width="100" height="100" fill="#ffffff"/><g transform="scale(2.439)"><g transform="translate(0,0)"><path fill-rule="evenodd" d="M8 0L8 4L9 4L9 5L8 5L8 7L9 7L9 8L11 8L11 6L12 6L12 7L13 7L13 6L14 6L14 8L15 8L15 9L16 9L16 10L13 10L13 8L12 8L12 12L11 12L11 10L10 10L10 9L9 9L9 10L8 10L8 9L7 9L7 8L4 8L4 10L2 10L2 8L0 8L0 9L1 9L1 11L0 11L0 15L1 15L1 16L0 16L0 17L1 17L1 19L2 19L2 21L1 21L1 20L0 20L0 23L1 23L1 22L4 22L4 21L3 21L3 18L2 18L2 15L4 15L4 17L5 17L5 15L4 15L4 14L6 14L6 15L8 15L8 14L11 14L11 15L9 15L9 16L10 16L10 17L9 17L9 18L8 18L8 16L6 16L6 17L7 17L7 18L5 18L5 19L7 19L7 18L8 18L8 19L9 19L9 20L5 20L5 22L6 22L6 23L5 23L5 25L4 25L4 24L3 24L3 23L2 23L2 24L0 24L0 25L1 25L1 26L0 26L0 28L2 28L2 29L0 29L0 30L2 30L2 31L3 31L3 33L4 33L4 30L5 30L5 29L7 29L7 30L6 30L6 31L7 31L7 32L5 32L5 33L7 33L7 32L9 32L9 33L8 33L8 34L9 34L9 33L10 33L10 32L9 32L9 31L11 31L11 32L12 32L12 33L13 33L13 34L15 34L15 35L14 35L14 36L13 36L13 35L12 35L12 34L10 34L10 35L8 35L8 37L9 37L9 39L8 39L8 41L9 41L9 40L11 40L11 41L12 41L12 40L13 40L13 41L14 41L14 40L15 40L15 41L16 41L16 38L17 38L17 40L21 40L21 41L24 41L24 40L25 40L25 41L26 41L26 40L25 40L25 39L26 39L26 38L27 38L27 39L28 39L28 40L29 40L29 41L30 41L30 39L32 39L32 41L37 41L37 40L33 40L33 39L32 39L32 38L31 38L31 37L33 37L33 38L34 38L34 39L35 39L35 38L34 38L34 37L37 37L37 39L39 39L39 41L40 41L40 40L41 40L41 37L37 37L37 34L38 34L38 35L39 35L39 34L40 34L40 36L41 36L41 30L40 30L40 31L39 31L39 30L38 30L38 31L37 31L37 32L36 32L36 30L37 30L37 29L36 29L36 28L37 28L37 27L39 27L39 24L38 24L38 23L39 23L39 22L40 22L40 24L41 24L41 22L40 22L40 21L41 21L41 17L40 17L40 20L39 20L39 21L38 21L38 19L39 19L39 18L38 18L38 17L37 17L37 16L38 16L38 15L36 15L36 16L35 16L35 14L40 14L40 15L39 15L39 16L40 16L40 15L41 15L41 8L37 8L37 9L36 9L36 8L35 8L35 10L34 10L34 9L32 9L32 11L35 11L35 10L36 10L36 11L37 11L37 12L35 12L35 14L32 14L32 13L34 13L34 12L31 12L31 11L30 11L30 10L31 10L31 9L30 9L30 7L31 7L31 8L33 8L33 6L32 6L32 5L31 5L31 3L32 3L32 2L33 2L33 1L31 1L31 0L28 0L28 1L29 1L29 2L27 2L27 3L26 3L26 5L25 5L25 6L24 6L24 7L23 7L23 6L22 6L22 4L21 4L21 3L23 3L23 2L22 2L22 0L21 0L21 1L20 1L20 0L18 0L18 2L17 2L17 3L16 3L16 2L15 2L15 0L12 0L12 1L13 1L13 2L9 2L9 1L10 1L10 0ZM16 0L16 1L17 1L17 0ZM23 0L23 1L24 1L24 4L23 4L23 5L24 5L24 4L25 4L25 2L26 2L26 1L27 1L27 0L25 0L25 1L24 1L24 0ZM13 2L13 4L11 4L11 3L9 3L9 4L10 4L10 6L9 6L9 7L10 7L10 6L11 6L11 5L13 5L13 4L14 4L14 5L16 5L16 6L15 6L15 8L16 8L16 9L18 9L18 10L19 10L19 12L17 12L17 10L16 10L16 13L15 13L15 11L14 11L14 13L15 13L15 14L16 14L16 15L17 15L17 14L19 14L19 15L18 15L18 16L14 16L14 15L12 15L12 16L11 16L11 18L10 18L10 20L9 20L9 21L6 21L6 22L8 22L8 23L6 23L6 24L7 24L7 25L6 25L6 26L7 26L7 27L6 27L6 28L7 28L7 29L8 29L8 30L9 30L9 28L10 28L10 26L9 26L9 25L11 25L11 24L12 24L12 23L13 23L13 25L12 25L12 26L15 26L15 24L16 24L16 23L17 23L17 21L16 21L16 20L17 20L17 19L19 19L19 20L20 20L20 22L19 22L19 21L18 21L18 23L19 23L19 24L18 24L18 25L17 25L17 26L16 26L16 29L17 29L17 26L19 26L19 27L18 27L18 31L19 31L19 32L17 32L17 31L16 31L16 32L14 32L14 31L12 31L12 32L14 32L14 33L15 33L15 34L16 34L16 33L20 33L20 34L17 34L17 35L16 35L16 36L15 36L15 37L12 37L12 35L11 35L11 37L10 37L10 38L11 38L11 40L12 40L12 39L13 39L13 40L14 40L14 38L16 38L16 37L19 37L19 39L20 39L20 38L21 38L21 34L24 34L24 36L26 36L26 37L27 37L27 38L28 38L28 37L29 37L29 39L30 39L30 37L31 37L31 35L30 35L30 34L32 34L32 32L34 32L34 31L33 31L33 30L35 30L35 28L34 28L34 29L32 29L32 30L31 30L31 31L32 31L32 32L29 32L29 31L30 31L30 29L31 29L31 28L27 28L27 29L26 29L26 27L27 27L27 25L31 25L31 26L30 26L30 27L32 27L32 26L33 26L33 24L34 24L34 27L35 27L35 24L37 24L37 23L36 23L36 22L35 22L35 23L34 23L34 22L33 22L33 23L32 23L32 21L33 21L33 20L34 20L34 21L36 21L36 20L34 20L34 19L33 19L33 18L34 18L34 17L35 17L35 16L34 16L34 15L33 15L33 16L34 16L34 17L31 17L31 16L32 16L32 14L31 14L31 12L30 12L30 17L29 17L29 16L26 16L26 14L25 14L25 13L27 13L27 11L25 11L25 10L26 10L26 9L27 9L27 8L28 8L28 9L29 9L29 10L30 10L30 9L29 9L29 7L30 7L30 5L29 5L29 3L27 3L27 4L28 4L28 5L27 5L27 8L26 8L26 6L25 6L25 8L26 8L26 9L24 9L24 11L22 11L22 10L23 10L23 9L22 9L22 8L23 8L23 7L22 7L22 6L21 6L21 5L20 5L20 2L18 2L18 3L19 3L19 5L18 5L18 6L17 6L17 5L16 5L16 4L15 4L15 3L14 3L14 2ZM30 2L30 3L31 3L31 2ZM19 5L19 6L18 6L18 7L17 7L17 6L16 6L16 7L17 7L17 8L19 8L19 6L20 6L20 8L22 8L22 7L21 7L21 6L20 6L20 5ZM28 5L28 7L29 7L29 5ZM31 6L31 7L32 7L32 6ZM6 9L6 10L7 10L7 11L5 11L5 10L4 10L4 11L2 11L2 12L3 12L3 13L2 13L2 14L4 14L4 13L6 13L6 14L7 14L7 13L6 13L6 12L8 12L8 13L10 13L10 11L9 11L9 12L8 12L8 10L7 10L7 9ZM20 9L20 11L21 11L21 12L19 12L19 14L20 14L20 13L22 13L22 15L20 15L20 16L19 16L19 18L20 18L20 16L22 16L22 17L23 17L23 18L21 18L21 19L20 19L20 20L22 20L22 21L23 21L23 23L22 23L22 22L20 22L20 25L19 25L19 26L20 26L20 29L19 29L19 30L20 30L20 29L21 29L21 30L22 30L22 31L21 31L21 32L20 32L20 33L21 33L21 32L22 32L22 33L23 33L23 31L29 31L29 29L28 29L28 30L26 30L26 29L23 29L23 27L24 27L24 25L25 25L25 23L28 23L28 24L30 24L30 23L29 23L29 21L28 21L28 18L29 18L29 17L26 17L26 16L25 16L25 14L23 14L23 13L22 13L22 11L21 11L21 10L22 10L22 9ZM37 9L37 11L38 11L38 12L39 12L39 13L40 13L40 11L39 11L39 10L38 10L38 9ZM4 11L4 12L5 12L5 11ZM28 11L28 13L29 13L29 11ZM12 12L12 13L11 13L11 14L12 14L12 13L13 13L13 12ZM24 12L24 13L25 13L25 12ZM28 14L28 15L29 15L29 14ZM22 15L22 16L23 16L23 17L24 17L24 23L25 23L25 22L26 22L26 21L27 21L27 22L28 22L28 21L27 21L27 18L26 18L26 17L24 17L24 15ZM12 16L12 17L13 17L13 18L15 18L15 19L14 19L14 20L11 20L11 21L10 21L10 22L11 22L11 21L15 21L15 22L14 22L14 24L15 24L15 23L16 23L16 21L15 21L15 19L16 19L16 18L17 18L17 17L16 17L16 18L15 18L15 17L14 17L14 16ZM30 17L30 19L29 19L29 20L31 20L31 21L30 21L30 22L31 22L31 21L32 21L32 20L33 20L33 19L32 19L32 20L31 20L31 17ZM11 18L11 19L12 19L12 18ZM25 18L25 19L26 19L26 18ZM35 18L35 19L38 19L38 18ZM22 19L22 20L23 20L23 19ZM37 21L37 22L38 22L38 21ZM9 23L9 24L11 24L11 23ZM2 24L2 25L3 25L3 26L2 26L2 28L3 28L3 29L2 29L2 30L4 30L4 28L3 28L3 26L4 26L4 25L3 25L3 24ZM23 24L23 25L24 25L24 24ZM20 25L20 26L21 26L21 27L22 27L22 25ZM8 26L8 27L7 27L7 28L8 28L8 27L9 27L9 26ZM25 26L25 27L26 27L26 26ZM28 26L28 27L29 27L29 26ZM36 26L36 27L37 27L37 26ZM40 26L40 29L41 29L41 26ZM14 27L14 29L15 29L15 27ZM12 28L12 29L10 29L10 30L12 30L12 29L13 29L13 28ZM21 28L21 29L22 29L22 28ZM38 31L38 32L37 32L37 33L38 33L38 32L39 32L39 31ZM0 32L0 33L2 33L2 32ZM24 32L24 33L25 33L25 34L27 34L27 35L26 35L26 36L27 36L27 37L28 37L28 35L29 35L29 36L30 36L30 35L29 35L29 33L28 33L28 32L27 32L27 33L25 33L25 32ZM33 33L33 36L36 36L36 33ZM34 34L34 35L35 35L35 34ZM17 35L17 36L18 36L18 35ZM22 35L22 36L23 36L23 35ZM22 37L22 40L23 40L23 38L25 38L25 37ZM39 38L39 39L40 39L40 38ZM0 0L0 7L7 7L7 0ZM1 1L1 6L6 6L6 1ZM2 2L2 5L5 5L5 2ZM34 0L34 7L41 7L41 0ZM35 1L35 6L40 6L40 1ZM36 2L36 5L39 5L39 2ZM0 34L0 41L7 41L7 34ZM1 35L1 40L6 40L6 35ZM2 36L2 39L5 39L5 36Z" fill="#000000"/></g></g></svg>