<svg xmlns="http://www.w3.org/2000/svg" version="1.1" width="100" height="100" viewBox="0 0 100 100"><rect x="0" y="0" width="100" height="100" fill="#ffffff"/><g transform="scale(2.439)"><g transform="translate(0,0)"><path fill-rule="evenodd" d="M8 0L8 2L10 2L10 3L9 3L9 4L8 4L8 9L10 9L10 8L13 8L13 6L12 6L12 7L11 7L11 3L12 3L12 4L13 4L13 5L14 5L14 4L13 4L13 3L14 3L14 2L13 2L13 3L12 3L12 0L11 0L11 2L10 2L10 0ZM13 0L13 1L16 1L16 0ZM17 0L17 1L18 1L18 2L17 2L17 3L18 3L18 5L17 5L17 6L16 6L16 4L15 4L15 6L14 6L14 8L16 8L16 10L15 10L15 9L13 9L13 10L10 10L10 11L8 11L8 10L6 10L6 9L7 9L7 8L5 8L5 9L4 9L4 10L6 10L6 11L8 11L8 12L6 12L6 13L7 13L7 14L6 14L6 15L5 15L5 17L3 17L3 16L4 16L4 15L2 15L2 13L4 13L4 14L5 14L5 12L4 12L4 11L2 11L2 10L3 10L3 8L0 8L0 9L1 9L1 10L0 10L0 13L1 13L1 15L0 15L0 16L1 16L1 15L2 15L2 17L3 17L3 18L2 18L2 19L3 19L3 20L2 20L2 21L4 21L4 22L5 22L5 21L4 21L4 19L5 19L5 18L6 18L6 19L7 19L7 20L6 20L6 21L7 21L7 20L8 20L8 22L6 22L6 23L5 23L5 24L6 24L6 25L8 25L8 26L9 26L9 27L7 27L7 26L5 26L5 25L4 25L4 23L3 23L3 22L2 22L2 23L1 23L1 22L0 22L0 24L1 24L1 25L2 25L2 26L3 26L3 25L4 25L4 26L5 26L5 27L7 27L7 28L4 28L4 27L2 27L2 29L1 29L1 28L0 28L0 29L1 29L1 30L0 30L0 31L2 31L2 32L0 32L0 33L2 33L2 32L3 32L3 33L8 33L8 34L9 34L9 35L8 35L8 36L9 36L9 38L8 38L8 41L10 41L10 40L9 40L9 38L10 38L10 37L12 37L12 39L11 39L11 40L13 40L13 41L14 41L14 40L16 40L16 41L18 41L18 40L19 40L19 41L20 41L20 40L21 40L21 39L22 39L22 40L25 40L25 41L26 41L26 40L25 40L25 37L26 37L26 36L25 36L25 37L24 37L24 38L23 38L23 37L22 37L22 36L21 36L21 39L20 39L20 37L19 37L19 35L21 35L21 34L22 34L22 35L25 35L25 28L24 28L24 27L26 27L26 30L27 30L27 31L28 31L28 30L29 30L29 29L30 29L30 28L31 28L31 31L30 31L30 32L27 32L27 34L26 34L26 35L28 35L28 36L29 36L29 37L28 37L28 38L26 38L26 39L27 39L27 41L29 41L29 40L28 40L28 39L29 39L29 37L30 37L30 36L31 36L31 38L32 38L32 41L33 41L33 40L34 40L34 41L35 41L35 40L36 40L36 41L37 41L37 40L36 40L36 39L37 39L37 35L38 35L38 34L37 34L37 32L38 32L38 30L39 30L39 29L40 29L40 27L41 27L41 26L40 26L40 27L39 27L39 29L37 29L37 30L36 30L36 29L35 29L35 28L34 28L34 29L35 29L35 30L33 30L33 27L34 27L34 25L35 25L35 27L36 27L36 28L37 28L37 26L36 26L36 25L41 25L41 24L40 24L40 23L41 23L41 22L40 22L40 21L39 21L39 22L40 22L40 23L39 23L39 24L38 24L38 23L37 23L37 24L36 24L36 23L35 23L35 22L36 22L36 21L37 21L37 22L38 22L38 18L39 18L39 17L40 17L40 19L39 19L39 20L40 20L40 19L41 19L41 13L40 13L40 11L41 11L41 8L39 8L39 10L38 10L38 9L37 9L37 8L33 8L33 5L32 5L32 8L33 8L33 12L31 12L31 11L32 11L32 9L31 9L31 11L30 11L30 12L31 12L31 13L28 13L28 14L27 14L27 15L26 15L26 14L25 14L25 13L26 13L26 12L24 12L24 11L25 11L25 10L26 10L26 8L27 8L27 11L28 11L28 12L29 12L29 10L30 10L30 9L29 9L29 8L27 8L27 6L26 6L26 8L25 8L25 5L24 5L24 3L23 3L23 0L21 0L21 1L22 1L22 2L21 2L21 3L20 3L20 2L19 2L19 1L20 1L20 0ZM26 0L26 1L28 1L28 0ZM30 0L30 1L29 1L29 2L27 2L27 3L26 3L26 2L25 2L25 3L26 3L26 5L28 5L28 7L29 7L29 5L28 5L28 3L29 3L29 4L30 4L30 5L31 5L31 2L30 2L30 1L31 1L31 0ZM15 2L15 3L16 3L16 2ZM18 2L18 3L19 3L19 8L18 8L18 6L17 6L17 8L18 8L18 9L20 9L20 11L19 11L19 10L18 10L18 11L17 11L17 10L16 10L16 11L15 11L15 10L13 10L13 11L12 11L12 12L8 12L8 13L10 13L10 14L12 14L12 15L9 15L9 16L10 16L10 17L11 17L11 18L12 18L12 17L11 17L11 16L14 16L14 17L13 17L13 18L16 18L16 19L17 19L17 20L18 20L18 21L19 21L19 20L20 20L20 19L19 19L19 18L20 18L20 17L21 17L21 20L22 20L22 21L21 21L21 22L22 22L22 23L21 23L21 26L20 26L20 24L18 24L18 23L17 23L17 24L14 24L14 23L16 23L16 21L15 21L15 22L14 22L14 23L13 23L13 25L17 25L17 26L16 26L16 27L15 27L15 26L12 26L12 27L11 27L11 26L10 26L10 28L11 28L11 29L9 29L9 28L7 28L7 29L6 29L6 30L8 30L8 31L9 31L9 30L12 30L12 31L11 31L11 32L14 32L14 33L13 33L13 34L12 34L12 33L11 33L11 34L10 34L10 32L9 32L9 34L10 34L10 35L9 35L9 36L11 36L11 34L12 34L12 35L13 35L13 36L14 36L14 35L13 35L13 34L16 34L16 33L15 33L15 32L18 32L18 35L17 35L17 36L18 36L18 35L19 35L19 34L20 34L20 33L19 33L19 32L22 32L22 34L24 34L24 33L23 33L23 32L24 32L24 31L22 31L22 30L20 30L20 27L21 27L21 29L23 29L23 30L24 30L24 29L23 29L23 27L22 27L22 25L23 25L23 24L25 24L25 25L27 25L27 24L28 24L28 23L27 23L27 22L28 22L28 21L29 21L29 24L30 24L30 27L29 27L29 26L28 26L28 27L27 27L27 28L28 28L28 29L27 29L27 30L28 30L28 29L29 29L29 28L30 28L30 27L31 27L31 25L34 25L34 24L31 24L31 23L30 23L30 22L31 22L31 20L32 20L32 21L34 21L34 20L36 20L36 18L38 18L38 17L39 17L39 16L40 16L40 14L39 14L39 13L36 13L36 12L37 12L37 9L36 9L36 10L35 10L35 9L34 9L34 10L35 10L35 11L36 11L36 12L35 12L35 13L34 13L34 12L33 12L33 14L35 14L35 15L34 15L34 16L33 16L33 15L32 15L32 16L31 16L31 15L29 15L29 14L28 14L28 15L27 15L27 16L26 16L26 15L25 15L25 14L24 14L24 13L23 13L23 12L22 12L22 11L23 11L23 9L24 9L24 5L23 5L23 4L22 4L22 3L21 3L21 4L20 4L20 3L19 3L19 2ZM32 2L32 4L33 4L33 2ZM9 4L9 7L10 7L10 4ZM20 5L20 8L21 8L21 9L22 9L22 8L23 8L23 6L22 6L22 5ZM15 6L15 7L16 7L16 6ZM21 6L21 8L22 8L22 6ZM30 6L30 7L31 7L31 6ZM21 10L21 11L22 11L22 10ZM1 11L1 13L2 13L2 11ZM13 11L13 13L14 13L14 11ZM16 11L16 12L17 12L17 13L18 13L18 12L19 12L19 13L20 13L20 14L19 14L19 16L20 16L20 15L21 15L21 13L22 13L22 12L19 12L19 11L18 11L18 12L17 12L17 11ZM38 11L38 12L39 12L39 11ZM31 13L31 14L32 14L32 13ZM35 13L35 14L36 14L36 15L35 15L35 16L34 16L34 18L33 18L33 16L32 16L32 17L31 17L31 19L30 19L30 20L29 20L29 19L28 19L28 18L29 18L29 16L27 16L27 19L28 19L28 20L29 20L29 21L30 21L30 20L31 20L31 19L32 19L32 20L34 20L34 19L35 19L35 18L36 18L36 17L37 17L37 16L38 16L38 15L39 15L39 14L36 14L36 13ZM7 14L7 15L6 15L6 16L7 16L7 17L6 17L6 18L7 18L7 19L8 19L8 20L9 20L9 21L10 21L10 22L9 22L9 25L12 25L12 24L10 24L10 23L12 23L12 20L14 20L14 19L12 19L12 20L11 20L11 21L10 21L10 20L9 20L9 18L7 18L7 17L8 17L8 14ZM15 14L15 15L14 15L14 16L15 16L15 17L16 17L16 18L17 18L17 19L18 19L18 18L19 18L19 17L18 17L18 16L15 16L15 15L16 15L16 14ZM17 14L17 15L18 15L18 14ZM22 14L22 16L21 16L21 17L22 17L22 16L23 16L23 19L26 19L26 18L25 18L25 17L26 17L26 16L25 16L25 15L24 15L24 14ZM23 15L23 16L24 16L24 15ZM35 16L35 17L36 17L36 16ZM17 17L17 18L18 18L18 17ZM0 18L0 21L1 21L1 18ZM3 18L3 19L4 19L4 18ZM25 20L25 21L23 21L23 23L24 23L24 22L26 22L26 20ZM32 22L32 23L34 23L34 22ZM6 23L6 24L8 24L8 23ZM2 24L2 25L3 25L3 24ZM35 24L35 25L36 25L36 24ZM18 25L18 26L17 26L17 27L16 27L16 28L17 28L17 27L18 27L18 29L17 29L17 31L18 31L18 32L19 32L19 31L20 31L20 30L19 30L19 27L20 27L20 26L19 26L19 25ZM0 26L0 27L1 27L1 26ZM18 26L18 27L19 27L19 26ZM32 26L32 27L33 27L33 26ZM12 27L12 28L13 28L13 29L14 29L14 27ZM3 29L3 30L2 30L2 31L3 31L3 32L4 32L4 31L5 31L5 30L4 30L4 29ZM8 29L8 30L9 30L9 29ZM15 30L15 31L14 31L14 32L15 32L15 31L16 31L16 30ZM40 30L40 31L41 31L41 30ZM6 31L6 32L7 32L7 31ZM32 31L32 32L30 32L30 33L29 33L29 36L30 36L30 33L32 33L32 32L33 32L33 31ZM34 31L34 32L37 32L37 31ZM39 32L39 34L40 34L40 35L39 35L39 37L38 37L38 39L39 39L39 38L40 38L40 39L41 39L41 36L40 36L40 35L41 35L41 33L40 33L40 32ZM33 33L33 36L36 36L36 33ZM31 34L31 35L32 35L32 34ZM34 34L34 35L35 35L35 34ZM15 35L15 36L16 36L16 35ZM15 37L15 38L14 38L14 39L13 39L13 40L14 40L14 39L16 39L16 37ZM18 37L18 39L17 39L17 40L18 40L18 39L19 39L19 40L20 40L20 39L19 39L19 37ZM34 37L34 38L33 38L33 39L34 39L34 38L35 38L35 39L36 39L36 37ZM22 38L22 39L23 39L23 38ZM40 40L40 41L41 41L41 40ZM0 0L0 7L7 7L7 0ZM1 1L1 6L6 6L6 1ZM2 2L2 5L5 5L5 2ZM34 0L34 7L41 7L41 0ZM35 1L35 6L40 6L40 1ZM36 2L36 5L39 5L39 2ZM0 34L0 41L7 41L7 34ZM1 35L1 40L6 40L6 35ZM2 36L2 39L5 39L5 36Z" fill="#000000"/></g></g></svg>